<?xml version="1.0" encoding="UTF-8" standalone="no"?>
<!DOCTYPE svg PUBLIC "-//W3C//DTD SVG 1.1//EN"
 "http://www.w3.org/Graphics/SVG/1.1/DTD/svg11.dtd">
<!-- Generated by graphviz version 2.36.0 (20140111.2315)
 -->
<!-- Title: models_diagram Pages: 1 -->
<svg width="1842pt" height="572pt"
 viewBox="0.00 0.00 1842.00 572.00" xmlns="http://www.w3.org/2000/svg" xmlns:xlink="http://www.w3.org/1999/xlink">
<g id="graph0" class="graph" transform="scale(1 1) rotate(0) translate(4 568)">
<title>models_diagram</title>
<polygon fill="none" stroke="none" points="-4,4 -4,-568 1838,-568 1838,4 -4,4"/>
<!-- _diagram_info -->
<g id="node1" class="node"><title>_diagram_info</title>
<text text-anchor="start" x="138" y="-549.6" font-family="Times,serif" font-size="13.00">Models diagram</text>
<text text-anchor="start" x="138" y="-535.6" font-family="Times,serif" font-size="13.00">Date: Jan 26 2016 &#45; 23:50</text>
<text text-anchor="start" x="138" y="-521.6" font-family="Times,serif" font-size="13.00">Migration version: 104</text>
<text text-anchor="start" x="138" y="-507.6" font-family="Times,serif" font-size="13.00">Generated by RailRoady 1.4.2</text>
<text text-anchor="start" x="138" y="-493.6" font-family="Times,serif" font-size="13.00">http://railroady.prestonlee.com</text>
</g>
<!-- Profile -->
<g id="node2" class="node"><title>Profile</title>
<ellipse fill="none" stroke="black" cx="361" cy="-430" rx="34.1708" ry="18"/>
<text text-anchor="middle" x="361" y="-426.3" font-family="Times,serif" font-size="14.00">Profile</text>
</g>
<!-- Sidebar -->
<g id="node3" class="node"><title>Sidebar</title>
<ellipse fill="none" stroke="black" cx="447" cy="-525" rx="37.5442" ry="18"/>
<text text-anchor="middle" x="447" y="-521.3" font-family="Times,serif" font-size="14.00">Sidebar</text>
</g>
<!-- Tag -->
<g id="node4" class="node"><title>Tag</title>
<ellipse fill="none" stroke="black" cx="530" cy="-525" rx="27" ry="18"/>
<text text-anchor="middle" x="530" y="-521.3" font-family="Times,serif" font-size="14.00">Tag</text>
</g>
<!-- Article -->
<g id="node25" class="node"><title>Article</title>
<ellipse fill="none" stroke="black" cx="530" cy="-430" rx="35.1455" ry="18"/>
<text text-anchor="middle" x="530" y="-426.3" font-family="Times,serif" font-size="14.00">Article</text>
</g>
<!-- Tag&#45;&gt;Article -->
<g id="edge1" class="edge"><title>Tag&#45;&gt;Article</title>
<path fill="none" stroke="#a4a9cb" d="M530,-496.77C530,-484.646 530,-470.399 530,-458.271"/>
<polygon fill="#a4a9cb" stroke="#a4a9cb" points="530,-496.942 525.5,-506.942 530,-501.942 530,-506.942 530,-506.942 530,-506.942 530,-501.942 534.5,-506.942 530,-496.942 530,-496.942"/>
<polygon fill="#a4a9cb" stroke="#a4a9cb" points="530,-458.264 534.5,-448.264 530,-453.264 530,-448.264 530,-448.264 530,-448.264 530,-453.264 525.5,-448.264 530,-458.264 530,-458.264"/>
</g>
<!-- Ping -->
<g id="node5" class="node"><title>Ping</title>
<ellipse fill="none" stroke="black" cx="27" cy="-342" rx="27" ry="18"/>
<text text-anchor="middle" x="27" y="-338.3" font-family="Times,serif" font-size="14.00">Ping</text>
</g>
<!-- Categorization -->
<g id="node6" class="node"><title>Categorization</title>
<ellipse fill="none" stroke="black" cx="103" cy="-268" rx="62.0922" ry="18"/>
<text text-anchor="middle" x="103" y="-264.3" font-family="Times,serif" font-size="14.00">Categorization</text>
</g>
<!-- Feedback -->
<g id="node7" class="node"><title>Feedback</title>
<ellipse fill="none" stroke="black" cx="404" cy="-342" rx="44.2946" ry="18"/>
<text text-anchor="middle" x="404" y="-338.3" font-family="Times,serif" font-size="14.00">Feedback</text>
</g>
<!-- Notification -->
<g id="node15" class="node"><title>Notification</title>
<ellipse fill="none" stroke="black" cx="911" cy="-18" rx="52.9443" ry="18"/>
<text text-anchor="middle" x="911" y="-14.3" font-family="Times,serif" font-size="14.00">Notification</text>
</g>
<!-- Feedback&#45;&gt;Notification -->
<g id="edge2" class="edge"><title>Feedback&#45;&gt;Notification</title>
<path fill="none" stroke="#e9fb79" d="M358.207,-330.45C309.378,-317.838 239,-295.127 239,-269 239,-269 239,-269 239,-91 239,-30.1599 680.101,-20.6425 847.556,-19.2215"/>
<ellipse fill="none" stroke="#e9fb79" cx="362.268" cy="-331.479" rx="4.00001" ry="4.00001"/>
<polygon fill="#e9fb79" stroke="#e9fb79" points="847.708,-19.2204 857.743,-23.6423 852.708,-19.1814 857.708,-19.1424 857.708,-19.1424 857.708,-19.1424 852.708,-19.1814 857.673,-14.6426 847.708,-19.2204 847.708,-19.2204"/>
</g>
<!-- Redirect -->
<g id="node16" class="node"><title>Redirect</title>
<ellipse fill="none" stroke="black" cx="535" cy="-268" rx="39.9464" ry="18"/>
<text text-anchor="middle" x="535" y="-264.3" font-family="Times,serif" font-size="14.00">Redirect</text>
</g>
<!-- Feedback&#45;&gt;Redirect -->
<g id="edge5" class="edge"><title>Feedback&#45;&gt;Redirect</title>
<path fill="none" stroke="#1aa1e8" d="M438.249,-322.176C457.893,-311.379 482.436,-297.89 501.887,-287.2"/>
<polygon fill="#1aa1e8" stroke="#1aa1e8" points="438.022,-322.301 427.091,-323.174 433.64,-324.709 429.258,-327.118 429.258,-327.118 429.258,-327.118 433.64,-324.709 431.426,-331.061 438.022,-322.301 438.022,-322.301"/>
<polygon fill="#1aa1e8" stroke="#1aa1e8" points="501.942,-287.17 512.873,-286.296 506.323,-284.761 510.705,-282.353 510.705,-282.353 510.705,-282.353 506.323,-284.761 508.538,-278.409 501.942,-287.17 501.942,-287.17"/>
</g>
<!-- Trigger -->
<g id="node18" class="node"><title>Trigger</title>
<ellipse fill="none" stroke="black" cx="556" cy="-92" rx="37.0701" ry="18"/>
<text text-anchor="middle" x="556" y="-88.3" font-family="Times,serif" font-size="14.00">Trigger</text>
</g>
<!-- Feedback&#45;&gt;Trigger -->
<g id="edge6" class="edge"><title>Feedback&#45;&gt;Trigger</title>
<path fill="none" stroke="#fa0abc" d="M418.414,-317.483C447.097,-270.684 511.097,-166.264 540.583,-118.154"/>
<ellipse fill="none" stroke="#fa0abc" cx="416.299" cy="-320.933" rx="4.00002" ry="4.00002"/>
<polygon fill="#fa0abc" stroke="#fa0abc" points="540.61,-118.111 549.672,-111.936 543.222,-113.848 545.835,-109.585 545.835,-109.585 545.835,-109.585 543.222,-113.848 541.999,-107.233 540.61,-118.111 540.61,-118.111"/>
</g>
<!-- User -->
<g id="node30" class="node"><title>User</title>
<ellipse fill="none" stroke="black" cx="911" cy="-92" rx="26.949" ry="18"/>
<text text-anchor="middle" x="911" y="-88.3" font-family="Times,serif" font-size="14.00">User</text>
</g>
<!-- Feedback&#45;&gt;User -->
<g id="edge3" class="edge"><title>Feedback&#45;&gt;User</title>
<path fill="none" stroke="#9c8085" d="M446.91,-327.158C450.321,-326.081 453.716,-325.018 457,-324 513.276,-306.557 530.518,-310.716 584,-286 635.924,-262.004 641.773,-243.371 692,-216 709.118,-206.671 714.413,-206.41 732,-198 763.918,-182.737 770.561,-176.124 803,-162 824.272,-152.738 832.011,-155.777 852,-144 865.705,-135.925 879.257,-124.521 889.91,-114.543"/>
<polygon fill="#9c8085" stroke="#9c8085" points="446.861,-327.173 435.968,-325.91 442.096,-328.686 437.33,-330.199 437.33,-330.199 437.33,-330.199 442.096,-328.686 438.692,-334.488 446.861,-327.173 446.861,-327.173"/>
<polygon fill="#9c8085" stroke="#9c8085" points="889.915,-114.538 900.238,-110.839 893.515,-111.068 897.115,-107.599 897.115,-107.599 897.115,-107.599 893.515,-111.068 893.992,-104.359 889.915,-114.538 889.915,-114.538"/>
<text text-anchor="middle" x="725.5" y="-220.3" font-family="Times,serif" font-size="14.00">notify_users</text>
</g>
<!-- Redirection -->
<g id="node31" class="node"><title>Redirection</title>
<ellipse fill="none" stroke="black" cx="391" cy="-92" rx="51.4931" ry="18"/>
<text text-anchor="middle" x="391" y="-88.3" font-family="Times,serif" font-size="14.00">Redirection</text>
</g>
<!-- Feedback&#45;&gt;Redirection -->
<g id="edge4" class="edge"><title>Feedback&#45;&gt;Redirection</title>
<path fill="none" stroke="#b2625e" d="M352.968,-336.184C333.435,-331.562 312.986,-322.733 301,-306 253.781,-240.084 295.769,-195.296 341,-128 344.685,-122.517 349.541,-117.629 354.778,-113.372"/>
<ellipse fill="none" stroke="#b2625e" cx="357.05" cy="-337.042" rx="4.00001" ry="4.00001"/>
<polygon fill="#b2625e" stroke="#b2625e" points="355.138,-113.108 365.866,-110.837 359.173,-110.156 363.209,-107.205 363.209,-107.205 363.209,-107.205 359.173,-110.156 360.552,-103.572 355.138,-113.108 355.138,-113.108"/>
</g>
<!-- PostType -->
<g id="node8" class="node"><title>PostType</title>
<ellipse fill="none" stroke="black" cx="619" cy="-525" rx="44.2946" ry="18"/>
<text text-anchor="middle" x="619" y="-521.3" font-family="Times,serif" font-size="14.00">PostType</text>
</g>
<!-- WebNotifier -->
<g id="node9" class="node"><title>WebNotifier</title>
<polygon fill="none" stroke="black" points="767,-543 681,-543 681,-507 767,-507 767,-543"/>
<text text-anchor="middle" x="724" y="-521.3" font-family="Times,serif" font-size="14.00">WebNotifier</text>
</g>
<!-- Trackback -->
<g id="node10" class="node"><title>Trackback</title>
<ellipse fill="none" stroke="black" cx="514" cy="-342" rx="48.1437" ry="18"/>
<text text-anchor="middle" x="514" y="-338.3" font-family="Times,serif" font-size="14.00">Trackback</text>
</g>
<!-- Trackback&#45;&gt;Notification -->
<g id="edge7" class="edge"><title>Trackback&#45;&gt;Notification</title>
<path fill="none" stroke="#d02604" d="M478.975,-323.131C462.728,-313.65 443.968,-300.877 430,-286 358.692,-210.051 259.892,-151.058 330,-74 364.341,-36.2551 704.438,-23.856 847.796,-20.2859"/>
<ellipse fill="none" stroke="#d02604" cx="482.758" cy="-325.278" rx="4.00002" ry="4.00002"/>
<polygon fill="#d02604" stroke="#d02604" points="848.185,-20.2766 858.291,-24.5329 853.183,-20.1554 858.182,-20.0342 858.182,-20.0342 858.182,-20.0342 853.183,-20.1554 858.072,-15.5355 848.185,-20.2766 848.185,-20.2766"/>
</g>
<!-- Trackback&#45;&gt;Redirect -->
<g id="edge10" class="edge"><title>Trackback&#45;&gt;Redirect</title>
<path fill="none" stroke="#7cd37e" d="M521.827,-314.166C523.593,-308.108 525.468,-301.68 527.233,-295.63"/>
<polygon fill="#7cd37e" stroke="#7cd37e" points="521.777,-314.337 514.657,-322.677 520.377,-319.137 518.977,-323.937 518.977,-323.937 518.977,-323.937 520.377,-319.137 523.297,-325.197 521.777,-314.337 521.777,-314.337"/>
<polygon fill="#7cd37e" stroke="#7cd37e" points="527.259,-295.541 534.379,-287.201 528.659,-290.741 530.059,-285.941 530.059,-285.941 530.059,-285.941 528.659,-290.741 525.739,-284.68 527.259,-295.541 527.259,-295.541"/>
</g>
<!-- Trackback&#45;&gt;Trigger -->
<g id="edge11" class="edge"><title>Trackback&#45;&gt;Trigger</title>
<path fill="none" stroke="#f961b3" d="M548.823,-322.831C562.42,-313.753 576.521,-301.388 584,-286 590.994,-271.61 586.517,-265.801 584,-250 582.087,-237.994 570.002,-209.781 567,-198 560.972,-174.348 559.47,-168.283 557,-144 556.211,-136.247 555.847,-127.798 555.708,-120.047"/>
<ellipse fill="none" stroke="#f961b3" cx="545.177" cy="-325.138" rx="4.00002" ry="4.00002"/>
<polygon fill="#f961b3" stroke="#f961b3" points="555.708,-120.042 560.14,-110.011 555.674,-115.042 555.64,-110.042 555.64,-110.042 555.64,-110.042 555.674,-115.042 551.14,-110.073 555.708,-120.042 555.708,-120.042"/>
</g>
<!-- Trackback&#45;&gt;User -->
<g id="edge8" class="edge"><title>Trackback&#45;&gt;User</title>
<path fill="none" stroke="#3de718" d="M570.846,-335.803C603.257,-331.156 643.887,-322.409 677,-306 732.073,-278.71 733.867,-254.222 782,-216 824.325,-182.39 843.49,-183.851 880,-144 886.991,-136.37 893.245,-126.93 898.274,-118.255"/>
<polygon fill="#3de718" stroke="#3de718" points="570.542,-335.843 560.033,-332.711 565.587,-336.507 560.631,-337.172 560.631,-337.172 560.631,-337.172 565.587,-336.507 561.229,-341.632 570.542,-335.843 570.542,-335.843"/>
<polygon fill="#3de718" stroke="#3de718" points="898.402,-118.023 907.168,-111.434 900.814,-113.643 903.226,-109.263 903.226,-109.263 903.226,-109.263 900.814,-113.643 899.284,-107.092 898.402,-118.023 898.402,-118.023"/>
<text text-anchor="middle" x="815.5" y="-220.3" font-family="Times,serif" font-size="14.00">notify_users</text>
</g>
<!-- Trackback&#45;&gt;Redirection -->
<g id="edge9" class="edge"><title>Trackback&#45;&gt;Redirection</title>
<path fill="none" stroke="#5f7c5a" d="M485.847,-320.942C474.289,-311.479 461.623,-299.337 453,-286 418.679,-232.917 401.998,-159.315 395.099,-120.117"/>
<ellipse fill="none" stroke="#5f7c5a" cx="488.987" cy="-323.43" rx="4.00002" ry="4.00002"/>
<polygon fill="#5f7c5a" stroke="#5f7c5a" points="395.059,-119.882 397.844,-109.276 394.233,-114.951 393.406,-110.02 393.406,-110.02 393.406,-110.02 394.233,-114.951 388.968,-110.764 395.059,-119.882 395.059,-119.882"/>
</g>
<!-- PageCache -->
<g id="node11" class="node"><title>PageCache</title>
<polygon fill="none" stroke="black" points="862.25,-543 785.75,-543 785.75,-507 862.25,-507 862.25,-543"/>
<text text-anchor="middle" x="824" y="-521.3" font-family="Times,serif" font-size="14.00">PageCache</text>
</g>
<!-- TextFilter -->
<g id="node12" class="node"><title>TextFilter</title>
<ellipse fill="none" stroke="black" cx="927" cy="-525" rx="46.2191" ry="18"/>
<text text-anchor="middle" x="927" y="-521.3" font-family="Times,serif" font-size="14.00">TextFilter</text>
</g>
<!-- EmailNotifier -->
<g id="node13" class="node"><title>EmailNotifier</title>
<polygon fill="none" stroke="black" points="1083,-543 991,-543 991,-507 1083,-507 1083,-543"/>
<text text-anchor="middle" x="1037" y="-521.3" font-family="Times,serif" font-size="14.00">EmailNotifier</text>
</g>
<!-- Theme -->
<g id="node14" class="node"><title>Theme</title>
<polygon fill="none" stroke="black" points="1156.25,-543 1101.75,-543 1101.75,-507 1156.25,-507 1156.25,-543"/>
<text text-anchor="middle" x="1129" y="-521.3" font-family="Times,serif" font-size="14.00">Theme</text>
</g>
<!-- Content -->
<g id="node21" class="node"><title>Content</title>
<ellipse fill="none" stroke="black" cx="685" cy="-180" rx="38.0212" ry="18"/>
<text text-anchor="middle" x="685" y="-176.3" font-family="Times,serif" font-size="14.00">Content</text>
</g>
<!-- Redirect&#45;&gt;Content -->
<g id="edge13" class="edge"><title>Redirect&#45;&gt;Content</title>
<path fill="none" stroke="#8c93fd" d="M552.972,-242.757C560.98,-233.331 571.072,-223.111 582,-216 599.794,-204.421 621.82,-196.263 640.93,-190.753"/>
<polygon fill="#8c93fd" stroke="#8c93fd" points="552.799,-242.97 543.006,-247.905 549.651,-246.854 546.502,-250.739 546.502,-250.739 546.502,-250.739 549.651,-246.854 549.998,-253.572 552.799,-242.97 552.799,-242.97"/>
<polygon fill="#8c93fd" stroke="#8c93fd" points="640.973,-190.742 651.805,-192.451 645.797,-189.426 650.621,-188.11 650.621,-188.11 650.621,-188.11 645.797,-189.426 649.436,-183.768 640.973,-190.742 640.973,-190.742"/>
</g>
<!-- Redirect&#45;&gt;Redirection -->
<g id="edge12" class="edge"><title>Redirect&#45;&gt;Redirection</title>
<path fill="none" stroke="#dd7c75" d="M516.569,-244.729C489.546,-212.077 439.352,-151.426 411.303,-117.533"/>
<ellipse fill="none" stroke="#dd7c75" cx="519.161" cy="-247.861" rx="4.00002" ry="4.00002"/>
<polygon fill="#dd7c75" stroke="#dd7c75" points="411.053,-117.23 408.144,-106.657 407.865,-113.378 404.677,-109.526 404.677,-109.526 404.677,-109.526 407.865,-113.378 401.21,-112.395 411.053,-117.23 411.053,-117.23"/>
</g>
<!-- Right -->
<g id="node17" class="node"><title>Right</title>
<ellipse fill="none" stroke="black" cx="361" cy="-525" rx="30.3206" ry="18"/>
<text text-anchor="middle" x="361" y="-521.3" font-family="Times,serif" font-size="14.00">Right</text>
</g>
<!-- Right&#45;&gt;Profile -->
<g id="edge14" class="edge"><title>Right&#45;&gt;Profile</title>
<path fill="none" stroke="#5ebb54" d="M361,-496.77C361,-484.646 361,-470.399 361,-458.271"/>
<polygon fill="#5ebb54" stroke="#5ebb54" points="361,-496.942 356.5,-506.942 361,-501.942 361,-506.942 361,-506.942 361,-506.942 361,-501.942 365.5,-506.942 361,-496.942 361,-496.942"/>
<polygon fill="#5ebb54" stroke="#5ebb54" points="361,-458.264 365.5,-448.264 361,-453.264 361,-448.264 361,-448.264 361,-448.264 361,-453.264 356.5,-448.264 361,-458.264 361,-458.264"/>
</g>
<!-- Page -->
<g id="node19" class="node"><title>Page</title>
<ellipse fill="none" stroke="black" cx="765" cy="-342" rx="27.4223" ry="18"/>
<text text-anchor="middle" x="765" y="-338.3" font-family="Times,serif" font-size="14.00">Page</text>
</g>
<!-- Page&#45;&gt;Notification -->
<g id="edge15" class="edge"><title>Page&#45;&gt;Notification</title>
<path fill="none" stroke="#55d0d6" d="M793.927,-327.145C827.588,-309.58 882.558,-276.186 914,-232 955.592,-173.55 967.499,-142.747 947,-74 943.787,-63.2259 937.716,-52.5991 931.462,-43.6018"/>
<ellipse fill="none" stroke="#55d0d6" cx="790.235" cy="-329.034" rx="4.00002" ry="4.00002"/>
<polygon fill="#55d0d6" stroke="#55d0d6" points="931.437,-43.568 929.117,-32.8502 928.467,-39.5456 925.497,-35.5232 925.497,-35.5232 925.497,-35.5232 928.467,-39.5456 921.877,-38.1961 931.437,-43.568 931.437,-43.568"/>
</g>
<!-- Page&#45;&gt;Redirect -->
<g id="edge18" class="edge"><title>Page&#45;&gt;Redirect</title>
<path fill="none" stroke="#3be81d" d="M729.446,-332.992C702.031,-326.527 663.3,-316.76 630,-306 610.993,-299.858 590.283,-291.941 573.064,-285.008"/>
<polygon fill="#3be81d" stroke="#3be81d" points="729.625,-333.034 738.343,-339.686 734.495,-334.168 739.364,-335.303 739.364,-335.303 739.364,-335.303 734.495,-334.168 740.385,-330.921 729.625,-333.034 729.625,-333.034"/>
<polygon fill="#3be81d" stroke="#3be81d" points="572.63,-284.831 565.066,-276.892 567.999,-282.946 563.369,-281.06 563.369,-281.06 563.369,-281.06 567.999,-282.946 561.672,-285.228 572.63,-284.831 572.63,-284.831"/>
</g>
<!-- Page&#45;&gt;Trigger -->
<g id="edge19" class="edge"><title>Page&#45;&gt;Trigger</title>
<path fill="none" stroke="#ec844f" d="M772.185,-315.809C778.496,-287.765 783.309,-242.862 759,-216 722.519,-175.687 684.973,-225.379 638,-198 606.246,-179.492 582.318,-143.504 568.736,-118.868"/>
<ellipse fill="none" stroke="#ec844f" cx="771.154" cy="-320.046" rx="4.00001" ry="4.00001"/>
<polygon fill="#ec844f" stroke="#ec844f" points="568.57,-118.556 567.854,-107.614 566.225,-114.14 563.88,-109.725 563.88,-109.725 563.88,-109.725 566.225,-114.14 559.906,-111.835 568.57,-118.556 568.57,-118.556"/>
</g>
<!-- Page&#45;&gt;User -->
<g id="edge16" class="edge"><title>Page&#45;&gt;User</title>
<path fill="none" stroke="#f3817c" d="M783.634,-317.607C803.781,-292.394 836.917,-251.149 866,-216 892.737,-183.687 912.562,-183.377 927,-144 930.077,-135.609 928.574,-126.313 925.501,-117.981"/>
<polygon fill="#f3817c" stroke="#f3817c" points="783.563,-317.696 773.808,-322.704 780.444,-321.604 777.324,-325.511 777.324,-325.511 777.324,-325.511 780.444,-321.604 780.841,-328.319 783.563,-317.696 783.563,-317.696"/>
<polygon fill="#f3817c" stroke="#f3817c" points="925.454,-117.875 925.459,-106.909 923.404,-113.314 921.354,-108.754 921.354,-108.754 921.354,-108.754 923.404,-113.314 917.25,-110.599 925.454,-117.875 925.454,-117.875"/>
<text text-anchor="middle" x="899.5" y="-220.3" font-family="Times,serif" font-size="14.00">notify_users</text>
</g>
<!-- Page&#45;&gt;Redirection -->
<g id="edge17" class="edge"><title>Page&#45;&gt;Redirection</title>
<path fill="none" stroke="#def919" d="M729.24,-338.528C662.173,-333.177 521.096,-318.304 486,-286 432.277,-236.553 483.351,-187.477 441,-128 437.168,-122.619 432.238,-117.783 426.97,-113.546"/>
<ellipse fill="none" stroke="#def919" cx="733.437" cy="-338.854" rx="4" ry="4"/>
<polygon fill="#def919" stroke="#def919" points="426.606,-113.28 421.177,-103.752 422.566,-110.334 418.526,-107.388 418.526,-107.388 418.526,-107.388 422.566,-110.334 415.874,-111.024 426.606,-113.28 426.606,-113.28"/>
</g>
<!-- ConfigManager -->
<g id="node20" class="node"><title>ConfigManager</title>
<polygon fill="none" stroke="black" stroke-dasharray="1,5" points="1277.25,-543 1174.75,-543 1174.75,-507 1277.25,-507 1277.25,-543"/>
<text text-anchor="middle" x="1226" y="-521.3" font-family="Times,serif" font-size="14.00">ConfigManager</text>
</g>
<!-- Content&#45;&gt;Notification -->
<g id="edge20" class="edge"><title>Content&#45;&gt;Notification</title>
<path fill="none" stroke="#24410c" d="M666.451,-156.355C661.229,-147.167 658.334,-136.694 664,-128 705.37,-64.5239 792.978,-37.7504 851.935,-26.6375"/>
<ellipse fill="none" stroke="#24410c" cx="668.625" cy="-159.719" rx="4.00002" ry="4.00002"/>
<polygon fill="#24410c" stroke="#24410c" points="852.022,-26.6222 862.658,-29.2917 856.944,-25.7421 861.866,-24.862 861.866,-24.862 861.866,-24.862 856.944,-25.7421 861.073,-20.4322 852.022,-26.6222 852.022,-26.6222"/>
</g>
<!-- Content&#45;&gt;Trigger -->
<g id="edge23" class="edge"><title>Content&#45;&gt;Trigger</title>
<path fill="none" stroke="#b845ae" d="M656.51,-160.242C648.568,-154.997 639.941,-149.286 632,-144 616.555,-133.718 599.389,-122.206 585.284,-112.724"/>
<ellipse fill="none" stroke="#b845ae" cx="660.234" cy="-162.698" rx="4.00002" ry="4.00002"/>
<polygon fill="#b845ae" stroke="#b845ae" points="585.238,-112.693 579.452,-103.378 581.089,-109.903 576.94,-107.112 576.94,-107.112 576.94,-107.112 581.089,-109.903 574.429,-110.846 585.238,-112.693 585.238,-112.693"/>
</g>
<!-- Content&#45;&gt;User -->
<g id="edge21" class="edge"><title>Content&#45;&gt;User</title>
<path fill="none" stroke="#5cb837" d="M722.487,-163.594C735.272,-157.915 749.49,-151.117 762,-144 772.824,-137.843 773.73,-133.297 785,-128 813.894,-114.419 849.064,-105.198 874.897,-99.6439"/>
<polygon fill="#5cb837" stroke="#5cb837" points="722.211,-163.715 711.246,-163.581 717.627,-165.711 713.042,-167.707 713.042,-167.707 713.042,-167.707 717.627,-165.711 714.839,-171.833 722.211,-163.715 722.211,-163.715"/>
<polygon fill="#5cb837" stroke="#5cb837" points="875.209,-99.5796 885.913,-101.962 880.105,-98.5675 885.002,-97.5555 885.002,-97.5555 885.002,-97.5555 880.105,-98.5675 884.091,-93.1486 875.209,-99.5796 875.209,-99.5796"/>
<text text-anchor="middle" x="818.5" y="-132.3" font-family="Times,serif" font-size="14.00">notify_users</text>
</g>
<!-- Content&#45;&gt;Redirection -->
<g id="edge22" class="edge"><title>Content&#45;&gt;Redirection</title>
<path fill="none" stroke="#58d51a" d="M647.69,-165.651C616.868,-154.845 571.864,-139.572 532,-128 502.682,-119.489 469.568,-111.202 442.801,-104.83"/>
<ellipse fill="none" stroke="#58d51a" cx="651.826" cy="-167.107" rx="4.00001" ry="4.00001"/>
<polygon fill="#58d51a" stroke="#58d51a" points="442.607,-104.784 433.909,-98.1057 437.741,-103.635 432.875,-102.485 432.875,-102.485 432.875,-102.485 437.741,-103.635 431.84,-106.865 442.607,-104.784 442.607,-104.784"/>
</g>
<!-- Resource -->
<g id="node22" class="node"><title>Resource</title>
<ellipse fill="none" stroke="black" cx="1271" cy="-342" rx="43.319" ry="18"/>
<text text-anchor="middle" x="1271" y="-338.3" font-family="Times,serif" font-size="14.00">Resource</text>
</g>
<!-- Article::States -->
<g id="node23" class="node"><title>Article::States</title>
<polygon fill="none" stroke="black" stroke-dasharray="1,5" points="1390,-543 1296,-543 1296,-507 1390,-507 1390,-543"/>
<text text-anchor="middle" x="1343" y="-521.3" font-family="Times,serif" font-size="14.00">Article::States</text>
</g>
<!-- Comment -->
<g id="node24" class="node"><title>Comment</title>
<ellipse fill="none" stroke="black" cx="857" cy="-342" rx="46.2191" ry="18"/>
<text text-anchor="middle" x="857" y="-338.3" font-family="Times,serif" font-size="14.00">Comment</text>
</g>
<!-- Comment&#45;&gt;Notification -->
<g id="edge24" class="edge"><title>Comment&#45;&gt;Notification</title>
<path fill="none" stroke="#1e1067" d="M906.222,-331.872C927.507,-326.486 952.052,-318.251 972,-306 1010.84,-282.147 1025.99,-274.288 1043,-232 1067.2,-171.822 1156.33,-248.621 980,-54 973.44,-46.7599 965.038,-40.8085 956.37,-35.9981"/>
<ellipse fill="none" stroke="#1e1067" cx="902.129" cy="-332.86" rx="4.00001" ry="4.00001"/>
<polygon fill="#1e1067" stroke="#1e1067" points="956.222,-35.9227 949.346,-27.3803 951.764,-33.6573 947.307,-31.3919 947.307,-31.3919 947.307,-31.3919 951.764,-33.6573 945.268,-35.4036 956.222,-35.9227 956.222,-35.9227"/>
</g>
<!-- Comment&#45;&gt;Redirect -->
<g id="edge27" class="edge"><title>Comment&#45;&gt;Redirect</title>
<path fill="none" stroke="#a55a53" d="M812.728,-327.156C808.775,-326.043 804.823,-324.973 801,-324 724.795,-304.597 635.004,-287.136 581.66,-277.318"/>
<polygon fill="#a55a53" stroke="#a55a53" points="812.881,-327.201 821.232,-334.308 817.684,-328.593 822.486,-329.986 822.486,-329.986 822.486,-329.986 817.684,-328.593 823.739,-325.664 812.881,-327.201 812.881,-327.201"/>
<polygon fill="#a55a53" stroke="#a55a53" points="581.651,-277.317 572.624,-271.091 576.732,-276.417 571.814,-275.517 571.814,-275.517 571.814,-275.517 576.732,-276.417 571.004,-279.944 581.651,-277.317 581.651,-277.317"/>
</g>
<!-- Comment&#45;&gt;Trigger -->
<g id="edge28" class="edge"><title>Comment&#45;&gt;Trigger</title>
<path fill="none" stroke="#ac9661" d="M869.312,-316.78C879.56,-295.178 893.352,-262.365 899,-232 908.146,-182.826 896.818,-156.907 856,-128 816.407,-99.9603 677.305,-94.1696 603.238,-93.1137"/>
<ellipse fill="none" stroke="#ac9661" cx="867.461" cy="-320.605" rx="4.00002" ry="4.00002"/>
<polygon fill="#ac9661" stroke="#ac9661" points="603.235,-93.1137 593.289,-88.4946 598.235,-93.054 593.236,-92.9943 593.236,-92.9943 593.236,-92.9943 598.235,-93.054 593.182,-97.4939 603.235,-93.1137 603.235,-93.1137"/>
</g>
<!-- Comment&#45;&gt;User -->
<g id="edge25" class="edge"><title>Comment&#45;&gt;User</title>
<path fill="none" stroke="#e15d61" d="M911.153,-334.65C928.93,-329.73 946.944,-321.096 958,-306 981.375,-274.083 973.191,-163.131 955,-128 951.421,-121.087 945.801,-115.085 939.76,-110.097"/>
<polygon fill="#e15d61" stroke="#e15d61" points="911.067,-334.671 900.29,-332.645 906.207,-335.845 901.347,-337.019 901.347,-337.019 901.347,-337.019 906.207,-335.845 902.404,-341.394 911.067,-334.671 911.067,-334.671"/>
<polygon fill="#e15d61" stroke="#e15d61" points="939.458,-109.873 934.087,-100.313 935.436,-106.903 931.413,-103.933 931.413,-103.933 931.413,-103.933 935.436,-106.903 928.74,-107.552 939.458,-109.873 939.458,-109.873"/>
<text text-anchor="middle" x="1005.5" y="-220.3" font-family="Times,serif" font-size="14.00">notify_users</text>
</g>
<!-- Comment&#45;&gt;Redirection -->
<g id="edge26" class="edge"><title>Comment&#45;&gt;Redirection</title>
<path fill="none" stroke="#ce6c72" d="M849.902,-316.122C840.167,-286.92 819.682,-239.503 784,-216 729.4,-180.036 701.144,-214.954 638,-198 596.863,-186.955 488.51,-138.134 429.925,-111.126"/>
<ellipse fill="none" stroke="#ce6c72" cx="851.15" cy="-320.03" rx="4.00001" ry="4.00001"/>
<polygon fill="#ce6c72" stroke="#ce6c72" points="429.702,-111.023 422.511,-102.744 425.163,-108.926 420.624,-106.829 420.624,-106.829 420.624,-106.829 425.163,-108.926 418.736,-110.914 429.702,-111.023 429.702,-111.023"/>
</g>
<!-- Article&#45;&gt;Ping -->
<g id="edge34" class="edge"><title>Article&#45;&gt;Ping</title>
<path fill="none" stroke="#c4e77d" d="M488.883,-422.6C464.307,-418.988 432.432,-414.675 404,-412 366.778,-408.498 101.272,-411.052 68,-394 56.7398,-388.229 47.517,-377.827 40.69,-367.915"/>
<ellipse fill="none" stroke="#c4e77d" cx="492.966" cy="-423.207" rx="4.00001" ry="4.00001"/>
<polygon fill="#c4e77d" stroke="#c4e77d" points="40.6802,-367.899 39.1143,-357.046 37.9983,-363.679 35.3164,-359.459 35.3164,-359.459 35.3164,-359.459 37.9983,-363.679 31.5185,-361.873 40.6802,-367.899 40.6802,-367.899"/>
</g>
<!-- Article&#45;&gt;Categorization -->
<g id="edge38" class="edge"><title>Article&#45;&gt;Categorization</title>
<path fill="none" stroke="#422df9" d="M488.574,-423.057C464.015,-419.622 432.262,-415.335 404,-412 336.153,-403.995 142.487,-414.278 101,-360 87.253,-342.014 89.5175,-315.662 94.1786,-295.939"/>
<ellipse fill="none" stroke="#422df9" cx="492.651" cy="-423.63" rx="4.00001" ry="4.00001"/>
<polygon fill="#422df9" stroke="#422df9" points="94.2454,-295.691 101.19,-287.204 95.5452,-290.863 96.8449,-286.035 96.8449,-286.035 96.8449,-286.035 95.5452,-290.863 92.4996,-284.865 94.2454,-295.691 94.2454,-295.691"/>
</g>
<!-- Article&#45;&gt;Feedback -->
<g id="edge36" class="edge"><title>Article&#45;&gt;Feedback</title>
<path fill="none" stroke="#8607e5" d="M487.378,-425.542C445.344,-421.142 385.36,-411.865 371,-394 363.877,-385.138 368.606,-374.695 376.468,-365.574"/>
<ellipse fill="none" stroke="#8607e5" cx="491.547" cy="-425.959" rx="4" ry="4"/>
<polygon fill="#8607e5" stroke="#8607e5" points="376.614,-365.426 386.83,-361.439 380.116,-361.857 383.618,-358.288 383.618,-358.288 383.618,-358.288 380.116,-361.857 380.406,-355.136 376.614,-365.426 376.614,-365.426"/>
</g>
<!-- Article&#45;&gt;Feedback -->
<g id="edge43" class="edge"><title>Article&#45;&gt;Feedback</title>
<path fill="none" stroke="#679d46" d="M486.676,-428.659C459.398,-425.949 425.887,-417.54 407,-394 401.77,-387.482 399.984,-378.854 399.814,-370.551"/>
<ellipse fill="none" stroke="#679d46" cx="490.932" cy="-429.004" rx="4" ry="4"/>
<polygon fill="#679d46" stroke="#679d46" points="399.823,-370.38 404.821,-360.619 400.075,-365.386 400.327,-360.392 400.327,-360.392 400.327,-360.392 400.075,-365.386 395.833,-360.165 399.823,-370.38 399.823,-370.38"/>
<text text-anchor="middle" x="461.5" y="-382.3" font-family="Times,serif" font-size="14.00">published_feedback</text>
</g>
<!-- Article&#45;&gt;Trackback -->
<g id="edge35" class="edge"><title>Article&#45;&gt;Trackback</title>
<path fill="none" stroke="#bab661" d="M525.303,-403.756C523.35,-393.259 521.079,-381.049 519.086,-370.34"/>
<ellipse fill="none" stroke="#bab661" cx="526.107" cy="-408.077" rx="4.00001" ry="4.00001"/>
<polygon fill="#bab661" stroke="#bab661" points="519.038,-370.081 521.633,-359.427 518.124,-365.166 517.209,-360.25 517.209,-360.25 517.209,-360.25 518.124,-365.166 512.785,-361.073 519.038,-370.081 519.038,-370.081"/>
</g>
<!-- Article&#45;&gt;Trackback -->
<g id="edge42" class="edge"><title>Article&#45;&gt;Trackback</title>
<path fill="none" stroke="#8d4285" d="M528.558,-403.684C527.812,-395.44 526.688,-386.281 525,-378 524.447,-375.285 523.764,-372.482 523.011,-369.7"/>
<ellipse fill="none" stroke="#8d4285" cx="528.89" cy="-407.881" rx="4" ry="4"/>
<polygon fill="#8d4285" stroke="#8d4285" points="522.948,-369.487 524.4,-358.618 521.518,-364.696 520.088,-359.905 520.088,-359.905 520.088,-359.905 521.518,-364.696 515.776,-361.191 522.948,-369.487 522.948,-369.487"/>
<text text-anchor="middle" x="586" y="-382.3" font-family="Times,serif" font-size="14.00">published_trackbacks</text>
</g>
<!-- Article&#45;&gt;Notification -->
<g id="edge29" class="edge"><title>Article&#45;&gt;Notification</title>
<path fill="none" stroke="#4b97b2" d="M573.054,-428.011C720.925,-424.053 1199,-406.354 1199,-343 1199,-343 1199,-343 1199,-91 1199,-44.8793 1058.23,-28.0551 973.528,-22.1062"/>
<ellipse fill="none" stroke="#4b97b2" cx="569.025" cy="-428.117" rx="4" ry="4"/>
<polygon fill="#4b97b2" stroke="#4b97b2" points="973.466,-22.1021 963.79,-16.9434 968.478,-21.7677 963.489,-21.4334 963.489,-21.4334 963.489,-21.4334 968.478,-21.7677 963.188,-25.9233 973.466,-22.1021 973.466,-22.1021"/>
</g>
<!-- Article&#45;&gt;Redirect -->
<g id="edge32" class="edge"><title>Article&#45;&gt;Redirect</title>
<path fill="none" stroke="#9f0d0d" d="M575.262,-428.278C601.289,-425.236 632.087,-416.604 649,-394 679.884,-352.724 614.833,-309.289 570.877,-286.058"/>
<polygon fill="#9f0d0d" stroke="#9f0d0d" points="575.15,-428.288 564.777,-424.733 570.172,-428.751 565.193,-429.213 565.193,-429.213 565.193,-429.213 570.172,-428.751 565.61,-433.694 575.15,-428.288 575.15,-428.288"/>
<polygon fill="#9f0d0d" stroke="#9f0d0d" points="570.75,-285.993 563.919,-277.414 566.305,-283.704 561.859,-281.415 561.859,-281.415 561.859,-281.415 566.305,-283.704 559.8,-285.416 570.75,-285.993 570.75,-285.993"/>
</g>
<!-- Article&#45;&gt;Trigger -->
<g id="edge33" class="edge"><title>Article&#45;&gt;Trigger</title>
<path fill="none" stroke="#5828ab" d="M487.788,-424.714C444.918,-419.571 382.308,-409.631 364,-394 339.935,-373.453 340.12,-353.714 351,-324 385.696,-229.241 480.171,-148.962 527.78,-113.086"/>
<ellipse fill="none" stroke="#5828ab" cx="491.841" cy="-425.186" rx="4.00001" ry="4.00001"/>
<polygon fill="#5828ab" stroke="#5828ab" points="527.798,-113.073 538.509,-110.723 531.812,-110.092 535.826,-107.111 535.826,-107.111 535.826,-107.111 531.812,-110.092 533.143,-103.498 527.798,-113.073 527.798,-113.073"/>
</g>
<!-- Article&#45;&gt;Resource -->
<g id="edge37" class="edge"><title>Article&#45;&gt;Resource</title>
<path fill="none" stroke="#8a6913" d="M573.422,-428.429C714.462,-426.347 1154.03,-417.982 1213,-394 1227.39,-388.147 1240.64,-377.144 1250.83,-366.852"/>
<ellipse fill="none" stroke="#8a6913" cx="569.353" cy="-428.488" rx="4" ry="4"/>
<polygon fill="#8a6913" stroke="#8a6913" points="1250.83,-366.851 1260.96,-362.65 1254.25,-363.209 1257.68,-359.567 1257.68,-359.567 1257.68,-359.567 1254.25,-363.209 1254.4,-356.484 1250.83,-366.851 1250.83,-366.851"/>
</g>
<!-- Article&#45;&gt;Comment -->
<g id="edge40" class="edge"><title>Article&#45;&gt;Comment</title>
<path fill="none" stroke="#202f39" d="M570.712,-421.405C604.048,-414.925 652.336,-404.939 694,-394 735.065,-383.219 781.187,-368.543 813.861,-357.702"/>
<ellipse fill="none" stroke="#202f39" cx="566.5" cy="-422.218" rx="4.00001" ry="4.00001"/>
<polygon fill="#202f39" stroke="#202f39" points="814.063,-357.634 824.974,-358.738 818.806,-356.052 823.549,-354.469 823.549,-354.469 823.549,-354.469 818.806,-356.052 822.125,-350.2 814.063,-357.634 814.063,-357.634"/>
</g>
<!-- Article&#45;&gt;Comment -->
<g id="edge41" class="edge"><title>Article&#45;&gt;Comment</title>
<path fill="none" stroke="#bda285" d="M572.32,-424.617C614.218,-419.618 679.901,-409.995 735,-394 764.453,-385.45 796.39,-371.935 820.197,-360.965"/>
<ellipse fill="none" stroke="#bda285" cx="568.241" cy="-425.093" rx="4.00001" ry="4.00001"/>
<polygon fill="#bda285" stroke="#bda285" points="820.488,-360.83 831.452,-360.672 825.017,-358.713 829.547,-356.596 829.547,-356.596 829.547,-356.596 825.017,-358.713 827.642,-352.519 820.488,-360.83 820.488,-360.83"/>
<text text-anchor="middle" x="837.5" y="-382.3" font-family="Times,serif" font-size="14.00">published_comments</text>
</g>
<!-- Category -->
<g id="node29" class="node"><title>Category</title>
<ellipse fill="none" stroke="black" cx="153" cy="-342" rx="42.3456" ry="18"/>
<text text-anchor="middle" x="153" y="-338.3" font-family="Times,serif" font-size="14.00">Category</text>
</g>
<!-- Article&#45;&gt;Category -->
<g id="edge39" class="edge"><title>Article&#45;&gt;Category</title>
<path fill="none" stroke="#556062" d="M486.341,-423.091C413.337,-413.206 274.28,-394.352 273,-394 243.459,-385.869 211.611,-372.079 188.153,-360.887"/>
<polygon fill="#556062" stroke="#556062" points="486.699,-423.14 496.005,-428.941 491.654,-423.81 496.609,-424.481 496.609,-424.481 496.609,-424.481 491.654,-423.81 497.212,-420.022 486.699,-423.14 486.699,-423.14"/>
<polygon fill="#556062" stroke="#556062" points="187.961,-360.794 180.926,-352.382 183.462,-358.613 178.963,-356.431 178.963,-356.431 178.963,-356.431 183.462,-358.613 176.999,-360.48 187.961,-360.794 187.961,-360.794"/>
</g>
<!-- Article&#45;&gt;User -->
<g id="edge30" class="edge"><title>Article&#45;&gt;User</title>
<path fill="none" stroke="#81d3f5" d="M575.15,-427.983C660.524,-425.528 842.239,-417.62 900,-394 970.48,-365.179 994.117,-351.469 1033,-286 1049.05,-258.979 1053.57,-245.598 1043,-216 1026.01,-168.407 1009.44,-160.808 971,-128 962.081,-120.387 951.282,-113.508 941.317,-107.904"/>
<polygon fill="#81d3f5" stroke="#81d3f5" points="574.983,-427.987 564.863,-423.764 569.985,-428.125 564.987,-428.262 564.987,-428.262 564.987,-428.262 569.985,-428.125 565.11,-432.76 574.983,-427.987 574.983,-427.987"/>
<polygon fill="#81d3f5" stroke="#81d3f5" points="941.277,-107.882 934.616,-99.1711 936.877,-105.506 932.478,-103.131 932.478,-103.131 932.478,-103.131 936.877,-105.506 930.34,-107.09 941.277,-107.882 941.277,-107.882"/>
<text text-anchor="middle" x="1081.5" y="-264.3" font-family="Times,serif" font-size="14.00">notify_users</text>
</g>
<!-- Article&#45;&gt;Redirection -->
<g id="edge31" class="edge"><title>Article&#45;&gt;Redirection</title>
<path fill="none" stroke="#435568" d="M488.345,-423.695C442.028,-417.34 370.505,-406.035 346,-394 303.893,-373.32 306.621,-349.116 267,-324 249.847,-313.127 236.18,-322.955 225,-306 174.807,-229.88 253.631,-182.135 327,-128 334.941,-122.141 343.979,-116.605 352.708,-111.739"/>
<ellipse fill="none" stroke="#435568" cx="492.435" cy="-424.249" rx="4.00001" ry="4.00001"/>
<polygon fill="#435568" stroke="#435568" points="352.834,-111.672 363.772,-110.887 357.235,-109.299 361.636,-106.926 361.636,-106.926 361.636,-106.926 357.235,-109.299 359.5,-102.965 352.834,-111.672 352.834,-111.672"/>
</g>
<!-- BlogSweeper -->
<g id="node26" class="node"><title>BlogSweeper</title>
<polygon fill="none" stroke="black" points="1497.25,-543 1408.75,-543 1408.75,-507 1497.25,-507 1497.25,-543"/>
<text text-anchor="middle" x="1453" y="-521.3" font-family="Times,serif" font-size="14.00">BlogSweeper</text>
</g>
<!-- Blog -->
<g id="node27" class="node"><title>Blog</title>
<ellipse fill="none" stroke="black" cx="1543" cy="-525" rx="27.4223" ry="18"/>
<text text-anchor="middle" x="1543" y="-521.3" font-family="Times,serif" font-size="14.00">Blog</text>
</g>
<!-- Feedback::States -->
<g id="node28" class="node"><title>Feedback::States</title>
<polygon fill="none" stroke="black" stroke-dasharray="1,5" points="1697,-543 1589,-543 1589,-507 1697,-507 1697,-543"/>
<text text-anchor="middle" x="1643" y="-521.3" font-family="Times,serif" font-size="14.00">Feedback::States</text>
</g>
<!-- Category&#45;&gt;Categorization -->
<g id="edge45" class="edge"><title>Category&#45;&gt;Categorization</title>
<path fill="none" stroke="#719ce6" d="M136.687,-317.509C131.577,-310.151 125.915,-301.998 120.714,-294.508"/>
<ellipse fill="none" stroke="#719ce6" cx="139.122" cy="-321.015" rx="4.00002" ry="4.00002"/>
<polygon fill="#719ce6" stroke="#719ce6" points="120.585,-294.322 118.577,-283.542 117.733,-290.215 114.881,-286.109 114.881,-286.109 114.881,-286.109 117.733,-290.215 111.185,-288.675 120.585,-294.322 120.585,-294.322"/>
</g>
<!-- Category&#45;&gt;Category -->
<g id="edge44" class="edge"><title>Category&#45;&gt;Category</title>
<path fill="none" stroke="#b24208" d="M200.593,-348.178C207.973,-347.25 213,-345.19 213,-342 213,-339.142 208.966,-337.191 202.82,-336.149"/>
<ellipse fill="none" stroke="#b24208" cx="196.518" cy="-348.457" rx="4" ry="4"/>
<polygon fill="#b24208" stroke="#b24208" points="202.491,-336.121 192.91,-330.786 197.509,-335.695 192.527,-335.27 192.527,-335.27 192.527,-335.27 197.509,-335.695 192.144,-339.754 202.491,-336.121 202.491,-336.121"/>
<text text-anchor="middle" x="235.5" y="-338.3" font-family="Times,serif" font-size="14.00">children</text>
</g>
<!-- User&#45;&gt;Notification -->
<g id="edge46" class="edge"><title>User&#45;&gt;Notification</title>
<path fill="none" stroke="#2a0a3c" d="M911,-65.7923C911,-59.5805 911,-52.8963 911,-46.5786"/>
<ellipse fill="none" stroke="#2a0a3c" cx="911" cy="-69.937" rx="4" ry="4"/>
<polygon fill="#2a0a3c" stroke="#2a0a3c" points="911,-46.4407 915.5,-36.4406 911,-41.4407 911,-36.4407 911,-36.4407 911,-36.4407 911,-41.4407 906.5,-36.4407 911,-46.4407 911,-46.4407"/>
</g>
<!-- User&#45;&gt;Content -->
<g id="edge47" class="edge"><title>User&#45;&gt;Content</title>
<path fill="none" stroke="#e63060" d="M873.347,-92.8231C812.908,-93.4314 698.431,-98.556 673,-128 666.975,-134.976 667.6,-144.422 670.556,-153.288"/>
<polygon fill="#e63060" stroke="#e63060" points="873.619,-92.8215 883.647,-97.2581 878.619,-92.7898 883.619,-92.7581 883.619,-92.7581 883.619,-92.7581 878.619,-92.7898 883.59,-88.2582 873.619,-92.8215 873.619,-92.8215"/>
<polygon fill="#e63060" stroke="#e63060" points="670.573,-153.329 670.328,-164.292 672.522,-157.933 674.472,-162.537 674.472,-162.537 674.472,-162.537 672.522,-157.933 678.616,-160.783 670.573,-153.329 670.573,-153.329"/>
<text text-anchor="middle" x="715.5" y="-132.3" font-family="Times,serif" font-size="14.00">notify_contents</text>
</g>
<!-- User&#45;&gt;Article -->
<g id="edge48" class="edge"><title>User&#45;&gt;Article</title>
<path fill="none" stroke="#ea65e1" d="M942.536,-103.979C1011.67,-129.918 1166.71,-199.37 1119,-286 1089.32,-339.895 1055.76,-330.068 1002,-360 971.782,-376.826 965.338,-384.791 932,-394 865.827,-412.278 665.355,-423.084 575.005,-427.145"/>
<ellipse fill="none" stroke="#ea65e1" cx="938.696" cy="-102.561" rx="4.00001" ry="4.00001"/>
<polygon fill="#ea65e1" stroke="#ea65e1" points="574.796,-427.154 564.607,-423.1 569.801,-427.375 564.806,-427.596 564.806,-427.596 564.806,-427.596 569.801,-427.375 565.004,-432.091 574.796,-427.154 574.796,-427.154"/>
</g>
<!-- NotificationMailer -->
<g id="node32" class="node"><title>NotificationMailer</title>
<polygon fill="none" stroke="black" points="1834.25,-543 1715.75,-543 1715.75,-507 1834.25,-507 1834.25,-543"/>
<text text-anchor="middle" x="1775" y="-521.3" font-family="Times,serif" font-size="14.00">NotificationMailer</text>
</g>
</g>
</svg>
